<svg id="Layer_1" data-name="Layer 1" xmlns="http://www.w3.org/2000/svg" viewBox="0 0 1024 1024"><defs><style>.cls-1{fill:#fff;}.cls-2,.cls-3{fill:none;stroke:#fff;stroke-miterlimit:10;}.cls-2{stroke-width:10px;}.cls-3{stroke-width:8px;}</style></defs><title>scifi</title><circle class="cls-1" cx="47.13" cy="373.09" r="13.36"/><circle class="cls-1" cx="976.02" cy="373.09" r="13.36"/><circle class="cls-1" cx="47.13" cy="721.68" r="13.36"/><circle class="cls-1" cx="976.02" cy="721.68" r="13.36"/><path class="cls-2" d="M48,721.68V872.74A123.14,123.14,0,0,0,171.13,995.89H852.87A123.14,123.14,0,0,0,976,872.74V721.68"/><path class="cls-3" d="M976,362.19V211.13A123.14,123.14,0,0,0,852.87,88H781.81a83.6,83.6,0,0,1-30,64.25H272.23a83.6,83.6,0,0,1-30-64.25H171.13A123.14,123.14,0,0,0,48,211.13V362.19"/><path class="cls-3" d="M781.81,88h0a83.59,83.59,0,0,0-30-64.25H272.23a83.59,83.59,0,0,0-30,64.25h0"/></svg>